# xmcd
#
# Track frame offsets:
# 150
# 14558
# 30210
# 42419
# 57040
# 72439
# 86732
# 99375
# 114285
# 129722
# 141781
# 156436
# 169312
# 182122
#
# Disc length: 2614 seconds
#
#
# Revision: 0
# Processed by: cddbd v1.5.1PL0 Copyright (c) Steve Scherf et al.
# Submitted via: FreeRIP 2.942 
#
DISCID=be0a340e
DTITLE=Vários - Clima de rodeio
DYEAR=2005
DGENRE=Sertanejo
TTITLE0=A maior festa
TTITLE1=O bicho vai pegar
TTITLE2=Mulher, cerveja e viola
TTITLE3=Barretezão
TTITLE4=Tchaca, tchaca na butchaca
TTITLE5=De são paulo a Belém
TTITLE6=Mulher, cachaça e rodeio
TTITLE7=Eu me amarrei
TTITLE8=Festa de rodeio
TTITLE9=Arrochando o nó
TTITLE10=Enrosca, enrosca
TTITLE11=Mocinha da cidade
TTITLE12=Não adiatou ir pescar
TTITLE13=Poeira subir
EXTD=
EXTT0=
EXTT1=
EXTT2=
EXTT3=
EXTT4=
EXTT5=
EXTT6=
EXTT7=
EXTT8=
EXTT9=
EXTT10=
EXTT11=
EXTT12=
EXTT13=
PLAYORDER=
